STARTFONT 2.1
FONT HAN-GB2312
SIZE 16 72 72
FONTBOUNDINGBOX 9 16 0 0
STARTPROPERTIES 1
BITCOUNT 8
ENDPROPERTIES
CHARS 32
STARTCHAR  00A8
ENCODING  168
SWIDTH  1000 0
DWIDTH  5 0
BBX  5 3 0 9
BITMAP
FFFF00FFFF
FFFF00FFFF
4040004040
ENDCHAR
STARTCHAR  00B1
ENCODING  177
SWIDTH  1000 0
DWIDTH  9 0
BBX  9 8 0 0
BITMAP
000000000000000000
00000010FF00000000
00101020FF10101000
30FFFFFFFFFFFFFF20
00000010FF00000000
00000010FF00000000
001010102010101000
30FFFFFFFFFFFFFF20
ENDCHAR
STARTCHAR  00B7
ENCODING  183
SWIDTH  1000 0
DWIDTH  4 0
BBX  2 3 1 3
BITMAP
FFFF
FFFF
E0E0
ENDCHAR
STARTCHAR  00E0
ENCODING  224
SWIDTH  1000 0
DWIDTH  10 0
BBX  9 12 0 0
BITMAP
0000A0E0E010000000
000010E0FF80000000
00000020E0FF200000
000000000010000000
80FFFFFFFFFFF0C020
60E0E0E0E0E0FFFFC0
00000000000020FFF0
40E0FFFFFFFFFFFFFF
E0FFF0E0E0E0E0FFFF
FFFF2000000000FFFF
E0FFF0E0E0E0E0FFFF
40E0FFFFFFFFFFFFFF
ENDCHAR
STARTCHAR  00E1
ENCODING  225
SWIDTH  1000 0
DWIDTH  10 0
BBX  9 12 0 0
BITMAP
0000000080E0E03000
00000020FFFF600000
000000A0FF80000000
000000102000000000
80FFFFFFFFFFF0C020
80E0E0E0E0E0FFFFC0
00000000000020FFF0
40E0FFFFFFFFFFFFFF
E0FFF0E0E0E0E0FFFF
FFFF2000000000FFFF
E0FFF0E0E0E0E0FFFF
40E0FFFFFFFFFFFFFF
ENDCHAR
STARTCHAR  00E8
ENCODING  232
SWIDTH  1000 0
DWIDTH  9 0
BBX  7 12 0 0
BITMAP
0080E060000000
0010E0E0000000
000040FF400000
00000010000000
0040E0FFFFFFE0
40FFFFE0E0E0C0
C0FF3000000000
F0FFFFFFFFFFE0
F0FFE0E0E0E0C0
C0FF2000000000
40FFE0A0808080
0060F0FFFFFFE0
ENDCHAR
STARTCHAR  00E9
ENCODING  233
SWIDTH  1000 0
DWIDTH  9 0
BBX  7 12 0 0
BITMAP
000010E0E03000
000060FF800000
0000E0E0000000
00002010000000
0040E0FFFFFFE0
40FFFFE0E0E0C0
C0FF3000000000
F0FFFFFFFFFFE0
F0FFE0E0E0E0C0
C0FF2000000000
40FFE0A0808080
0060F0FFFFFFE0
ENDCHAR
STARTCHAR  00EA
ENCODING  234
SWIDTH  1000 0
DWIDTH  9 0
BBX  7 12 0 0
BITMAP
0030E0E0800000
00A0E0A0F02000
30FF4020F0C000
10100000101000
0040E0FFFFFFE0
40FFFFE0E0E0C0
C0FF3000000000
F0FFFFFFFFFFE0
F0FFE0E0E0E0C0
C0FF2000000000
40FFE0A0808080
0060F0FFFFFFE0
ENDCHAR
STARTCHAR  00EC
ENCODING  236
SWIDTH  1000 0
DWIDTH  3 0
BBX  5 12 -1 0
BITMAP
00A0E04000
0030FFA000
000060FF10
0000001000
0000FFFF00
0000FFFF00
0000FFFF00
0000FFFF00
0000FFFF00
0000FFFF00
0000FFFF00
0000FFFF00
ENDCHAR
STARTCHAR  00ED
ENCODING  237
SWIDTH  1000 0
DWIDTH  3 0
BBX  5 12 0 0
BITMAP
0020E0C010
0080FF6000
00E0A00000
0020000000
00FFFF0000
00FFFF0000
00FFFF0000
00FFFF0000
00FFFF0000
00FFFF0000
00FFFF0000
00FFFF0000
ENDCHAR
STARTCHAR  00F2
ENCODING  242
SWIDTH  1000 0
DWIDTH  11 0
BBX  10 12 0 0
BITMAP
000060E0E06000000000
000000A0FFE000000000
00000000C0FF60000000
00000000103020000000
002080E0F0FFE0A02000
30F0FFFFE0E0FFFFF020
C0FFC010000020C0FFA0
FFFF100000000020FFF0
FFFF200000000010FFFF
C0FFC020000010C0FFC0
30F0FFFFE0E0FFFFF030
0020A0E0FFFFE0A02000
ENDCHAR
STARTCHAR  00F3
ENCODING  243
SWIDTH  1000 0
DWIDTH  11 0
BBX  10 12 0 0
BITMAP
0000000030E0E0A00000
00000000A0FFE0100000
00000030FFE020000000
00000020402000000000
002080E0F0FFE0A02000
30F0FFFFE0E0FFFFF020
C0FFC010000020C0FFA0
FFFF100000000020FFF0
FFFF200000000010FFFF
C0FFC020000010C0FFC0
30F0FFFFE0E0FFFFF030
0020A0E0FFFFE0A02000
ENDCHAR
STARTCHAR  00F7
ENCODING  247
SWIDTH  1000 0
DWIDTH  9 0
BBX  8 6 0 1
BITMAP
000000A0A0000000
000000E0E0000000
1010101010101010
C0FFFFFFFFFFFFC0
000000A0A0000000
000000E0E0000000
ENDCHAR
STARTCHAR  00F9
ENCODING  249
SWIDTH  1000 0
DWIDTH  9 0
BBX  7 12 1 0
BITMAP
0030E0A0000000
0000A0FF300000
000010E0800000
00000000000000
FFFF000000FFFF
FFFF000000FFFF
FFFF000000FFFF
FFFF000000FFFF
FFFF000000FFFF
FFFF200000FFFF
E0FFF0E0E0FFFF
30E0FFFFFFFFFF
ENDCHAR
STARTCHAR  00FA
ENCODING  250
SWIDTH  1000 0
DWIDTH  9 0
BBX  7 12 1 0
BITMAP
00000080E06000
000010F0E00000
000060FF300000
00001010000000
FFFF000000FFFF
FFFF000000FFFF
FFFF000000FFFF
FFFF000000FFFF
FFFF000000FFFF
FFFF200000FFFF
E0FFF0E0E0FFFF
30E0FFFFFFFFFF
ENDCHAR
STARTCHAR  00FC
ENCODING  252
SWIDTH  1000 0
DWIDTH  9 0
BBX  9 12 0 0
BITMAP
0000FFFF00FFFF0000
0000FFFF00FFFF0000
000040400040400000
106060100020606000
20FFFF400040FFFF10
20FFFF400040FFFF10
20FFFF400040FFFF10
20FFFF400040FFFF10
20FFFF400040FFFF10
20FFFF600040FFFF10
00E0FFF0E0E0FFFF10
0040E0FFFFFFFFFF10
ENDCHAR
STARTCHAR  02C7
ENCODING  711
SWIDTH  1000 0
DWIDTH  6 0
BBX  6 3 0 9
BITMAP
A0E02010E0A0
20F0A0A0F020
0060E0E06000
ENDCHAR
STARTCHAR  0394
ENCODING  916
SWIDTH  1000 0
DWIDTH  10 0
BBX  10 11 0 0
BITMAP
00000000802000000000
00000000E08000000000
00000040FFF000000000
000000A080FF60000000
000020C010F0C0000000
0000804000A0FF200000
0000C0000030FF800000
004080000000C0F00000
00A02000000060FF6000
20C00000000010F0C000
80F0E0E0E0E0E0F0FF20
ENDCHAR
STARTCHAR  03A9
ENCODING  937
SWIDTH  1000 0
DWIDTH  12 0
BBX  10 11 1 0
BITMAP
001080E0FFFFE0801000
10E0FF60101060FFE010
80FF800000000080FF80
E0FF200000000020FFE0
FFFF000000000000FFFF
F0FF100000000010FFF0
A0FF600000000060FFA0
10E0E030000030E0E010
601060FF0000FF601080
E08080FF0000FF80A0F0
FFFFFFFF0000FFFFFFFF
ENDCHAR
STARTCHAR  03C0
ENCODING  960
SWIDTH  1000 0
DWIDTH  9 0
BBX  9 8 0 0
BITMAP
000010101010101000
80F0FFFFFFFFFFFF30
8010FF0000FFFF0000
0010FF0000FFFF0000
0020FF0000FFFF0000
1040F00000FFFF0030
A0C0C00000E0FF2040
C0F040000060F0C010
ENDCHAR
STARTCHAR  2014
ENCODING  8212
SWIDTH  1000 0
DWIDTH  14 0
BBX  14 3 0 4
BITMAP
80FFFFFFFFFFFFFFFFFFFFFFFF40
80FFFFFFFFFFFFFFFFFFFFFFFF40
80E0E0E0E0E0E0E0E0E0E0E0E040
ENDCHAR
STARTCHAR  2018
ENCODING  8216
SWIDTH  1000 0
DWIDTH  4 0
BBX  3 5 0 7
BITMAP
10C000
C0FF00
FFFFF0
FFFFF0
E0E0E0
ENDCHAR
STARTCHAR  2019
ENCODING  8217
SWIDTH  1000 0
DWIDTH  4 0
BBX  3 5 0 7
BITMAP
F0FFFF
F0FFFF
A0FFF0
00F060
001000
ENDCHAR
STARTCHAR  220F
ENCODING  8719
SWIDTH  1000 0
DWIDTH  13 0
BBX  14 16 0 -4
BITMAP
60FFFFFFFFFFFFFFFFFFFFFFFF60
0000FFFF000000000000FFFF0000
0000FFFF000000000000FFFF0000
0000FFFF000000000000FFFF0000
0000FFFF000000000000FFFF0000
0000FFFF000000000000FFFF0000
0000FFFF000000000000FFFF0000
0000FFFF000000000000FFFF0000
0000FFFF000000000000FFFF0000
0000FFFF000000000000FFFF0000
0000FFFF000000000000FFFF0000
0000FFFF000000000000FFFF0000
0000FFFF000000000000FFFF0000
0000FFFF000000000000FFFF0000
0000FFFF000000000000FFFF0000
60FFFFFFFF40000040FFFFFFFF60
ENDCHAR
STARTCHAR  2211
ENCODING  8721
SWIDTH  1000 0
DWIDTH  11 0
BBX  11 16 0 -4
BITMAP
10E0FFFFFFFFFFFFFF6000
0030FF8000002060F0A000
000080FF4000000060C000
000000C0F020000000C000
00000020F0C00000000000
0000000060FF8000000000
0000000000A0FF30000000
000000000010E0E0000000
0000000000008080000000
000000000040A000000000
0000000020A00000000000
00000010A0100000002020
000000A02000000000C030
0000803000001030A0FF00
0060FFFFFFFFFFFFFFC000
20E0E0E0E0E0E0E0E03000
ENDCHAR
STARTCHAR  221A
ENCODING  8730
SWIDTH  1000 0
DWIDTH  9 0
BBX  11 13 -1 0
BITMAP
000000000000000060FF60
0000000000000000C04000
0000000000000010E00000
0000000000000080800000
00000000000000E0200000
00208010000030C0000000
1080FF6000008060000000
0000A0C00000E010000000
000040FF2040A000000000
000000F080A03000000000
00000080E0E00000000000
00000030FF800000000000
00000000C0100000000000
ENDCHAR
STARTCHAR  221E
ENCODING  8734
SWIDTH  1000 0
DWIDTH  11 0
BBX  10 7 1 1
BITMAP
20E0F0800060F0E04000
A04020A080FF6020A010
60000000E0A000001060
60000030FF4000001060
802020E0A0C02010A020
20E0FFC01040F0FF8000
00001000000000100000
ENDCHAR
STARTCHAR  222B
ENCODING  8747
SWIDTH  1000 0
DWIDTH  4 0
BBX  8 15 -1 -3
BITMAP
0000000040C0FF80
00000020F0608080
00000080FF200000
000000E0FF100000
000000F0FF000000
000000FFFF000000
000000FFFF000000
000000FFFF000000
000000FFFF000000
000000FFFF000000
000010FFE0000000
000010FFC0000000
000030FF80000000
A0C060F020000000
60FFE03000000000
ENDCHAR
STARTCHAR  2248
ENCODING  8776
SWIDTH  1000 0
DWIDTH  9 0
BBX  9 6 0 1
BITMAP
000000000000000000
1080C0A06020108060
C0A06060C0FFFFA020
40C0FFF0A06060A060
A060103080C0C08000
000000000000000000
ENDCHAR
STARTCHAR  2260
ENCODING  8800
SWIDTH  1000 0
DWIDTH  9 0
BBX  8 7 0 0
BITMAP
0000000000008060
001010101080E020
40FFFFFFFFFFFFF0
00101060E0301010
40FFFFFFFFFFFFF0
0060E02000000000
00A0200000000000
ENDCHAR
STARTCHAR  2264
ENCODING  8804
SWIDTH  1000 0
DWIDTH  9 0
BBX  8 8 0 0
BITMAP
0000000000000000
00000000004080E0
000040A0F0E0A040
40F0F08030000000
20A0F0E080400000
00000040A0E0E0A0
0010101010104080
60FFFFFFFFFFFFF0
ENDCHAR
STARTCHAR  2265
ENCODING  8805
SWIDTH  1000 0
DWIDTH  9 0
BBX  8 8 0 0
BITMAP
0000000000000000
60C0602000000000
1060C0F0E0802000
0000001060C0FFE0
00001060A0F0E080
30C0FFC080200000
4080301010101010
60FFFFFFFFFFFFF0
ENDCHAR
ENDFONT
